<svg id="icon_24x24_ic24-photo-add" data-name="icon / 24x24 / ic24-photo-add" xmlns="http://www.w3.org/2000/svg" width="24" height="24" viewBox="0 0 24 24">
  <path id="Icon" d="M17,20H3a3,3,0,0,1-3-3V3A3,3,0,0,1,3,0H7A1,1,0,1,1,7,2H3A1,1,0,0,0,2,3V16.278l4.187-5.86a1,1,0,0,1,1.355-.259l.1.073,5.145,4.286,1.382-2.073A1,1,0,0,1,15,12a.987.987,0,0,1,.613.21l.093.083L18,14.585V13a1,1,0,1,1,2,0v4A3,3,0,0,1,17,20ZM7.187,12.458,3.228,18H17a1,1,0,0,0,.937-.65l-2.782-2.78-1.323,1.985a1,1,0,0,1-1.378.283l-.094-.07-5.172-4.31ZM15,10a1,1,0,0,1-1-1V6H11a1,1,0,0,1,0-2h3V1a1,1,0,0,1,2,0V4h3a1,1,0,0,1,0,2H16V9A1,1,0,0,1,15,10ZM6,8A2,2,0,1,1,8,6,2,2,0,0,1,6,8Z" transform="translate(2 2)"/>
</svg>
