<svg id="icon_24x24_ic24-notification" data-name="icon / 24x24 / ic24-notification" xmlns="http://www.w3.org/2000/svg" width="24" height="24" viewBox="0 0 24 24">
  <path id="Icon" d="M8,20a2,2,0,0,1-2-2H1a.987.987,0,0,1-.82-.427,1,1,0,0,1-.121-.914l.046-.106,1.156-2.311a6.949,6.949,0,0,0,.731-2.8L2,11.111V8A6,6,0,0,1,7,2.083V1A1,1,0,1,1,9,1V2.083A6.018,6.018,0,0,1,14,7.753L14,8v3.111a6.959,6.959,0,0,0,.6,2.836l.139.294L15.9,16.553a.987.987,0,0,1-.015.924,1,1,0,0,1-.764.517L15,18H10A2,2,0,0,1,8,20ZM8,4a4,4,0,0,0-4,3.8L4,8v3.111a8.947,8.947,0,0,1-.8,3.71l-.15.315L2.619,16H13.383l-.432-.864a8.946,8.946,0,0,1-.943-3.676L12,11.111V8A4.005,4.005,0,0,0,8,4Z" transform="translate(3.999 2)"/>
</svg>
