<svg id="icon_24x24_ic24-photo" data-name="icon / 24x24 / ic24-photo" xmlns="http://www.w3.org/2000/svg" width="20" height="20" viewBox="0 0 20 20">
  <path id="Icon" d="M17,20H3a3,3,0,0,1-3-3V3A3,3,0,0,1,3,0H17a3,3,0,0,1,3,3V17A3,3,0,0,1,17,20ZM7.187,12.458,3.228,18H17a1,1,0,0,0,1-1V10.3l-4.168,6.252a1,1,0,0,1-1.378.284l-.094-.07-5.172-4.31ZM3,2A1,1,0,0,0,2,3V16.278l4.187-5.86a1,1,0,0,1,1.355-.259l.1.073,5.145,4.288L18,6.7V3a1,1,0,0,0-1-1ZM6,8A2,2,0,1,1,8,6,2,2,0,0,1,6,8Z" transform="translate(0 0)"/>
</svg>
